<?xml version="1.0" standalone="no"?>
<!DOCTYPE svg PUBLIC "-//W3C//DTD SVG 20010904//EN"
 "http://www.w3.org/TR/2001/REC-SVG-20010904/DTD/svg10.dtd">
<svg version="1.0" xmlns="http://www.w3.org/2000/svg"
 width="449.000000pt" height="482.000000pt" viewBox="0 0 449.000000 482.000000"
 preserveAspectRatio="xMidYMid meet">

<g transform="translate(0.000000,482.000000) scale(0.100000,-0.100000)"
fill="#000000" stroke="none">
<path d="M2132 4513 c-25 -9 -39 -19 -36 -25 4 -7 2 -8 -4 -4 -14 9 -55 -12
-47 -24 3 -5 0 -12 -6 -16 -8 -4 -9 -3 -5 4 4 7 3 12 -2 12 -13 0 -43 -35 -37
-43 3 -4 2 -5 -2 -2 -8 6 -53 -34 -53 -47 0 -5 5 -6 12 -2 7 4 8 3 4 -5 -4 -6
-12 -9 -17 -5 -18 11 -52 -89 -57 -167 -10 -171 86 -325 239 -380 l59 -22 0
-263 0 -264 70 0 70 0 0 265 c0 246 1 265 18 265 34 0 138 58 180 101 24 24
58 73 75 109 29 58 32 73 32 155 0 95 -26 192 -47 179 -7 -4 -8 -2 -4 5 9 14
-40 82 -56 78 -7 -1 -12 3 -13 8 -1 23 -21 39 -88 71 -65 31 -79 34 -157 33
-48 0 -103 -7 -128 -16z m-235 -315 c-3 -8 -6 -5 -6 6 -1 11 2 17 5 13 3 -3 4
-12 1 -19z"/>
<path d="M1750 3969 c-138 -79 -630 -366 -678 -397 l-53 -33 21 -32 c12 -18
26 -42 32 -54 6 -13 16 -23 23 -23 6 0 146 79 311 176 164 97 334 197 377 221
42 25 79 49 82 53 5 8 -46 118 -55 119 -3 1 -30 -13 -60 -30z"/>
<path d="M2673 3942 l-32 -58 132 -79 c192 -116 598 -355 629 -371 28 -14 28
-14 57 45 28 55 29 60 13 73 -29 25 -715 429 -752 443 -11 4 -25 -12 -47 -53z"/>
<path d="M565 3607 c-69 -23 -123 -56 -165 -100 -182 -188 -129 -508 101 -617
191 -90 410 -8 502 188 29 61 32 76 32 167 0 93 -2 105 -32 166 -63 128 -176
200 -318 206 -48 2 -96 -2 -120 -10z m132 -3 c-3 -3 -12 -4 -19 -1 -8 3 -5 6
6 6 11 1 17 -2 13 -5z"/>
<path d="M3713 3596 c-165 -62 -251 -201 -241 -386 l5 -85 -126 -75 c-177
-104 -355 -211 -358 -214 -2 -1 11 -28 28 -60 22 -40 36 -56 46 -52 23 9 436
258 452 272 12 11 23 5 68 -37 79 -74 147 -102 252 -103 76 0 94 3 153 31 89
42 151 101 191 182 29 61 32 73 32 171 0 93 -3 111 -27 162 -35 75 -113 152
-186 185 -85 38 -205 42 -289 9z"/>
<path d="M2152 3168 c-95 -12 -197 -47 -280 -96 -85 -51 -195 -150 -188 -169
3 -8 2 -11 -3 -8 -23 14 -114 -150 -152 -275 -33 -106 -33 -274 0 -380 116
-379 480 -599 870 -525 330 63 567 314 603 640 25 224 -48 430 -212 596 -120
121 -246 186 -420 215 -94 15 -112 16 -218 2z m436 -415 l-3 -68 -187 0 -188
1 0 -93 0 -93 160 0 160 0 0 -65 0 -65 -160 0 -160 0 0 -175 0 -175 -90 0 -90
0 0 400 0 400 280 0 281 0 -3 -67z"/>
<path d="M1061 3014 c-17 -32 -30 -58 -28 -59 26 -22 410 -245 421 -245 5 0
43 67 58 102 5 11 -1 20 -20 30 -15 7 -105 59 -199 116 -95 56 -179 105 -187
108 -9 4 -24 -14 -45 -52z"/>
<path d="M600 2390 l0 -390 70 0 70 0 0 390 0 390 -70 0 -70 0 0 -390z"/>
<path d="M3770 2390 l0 -390 70 0 70 0 0 390 0 390 -70 0 -70 0 0 -390z"/>
<path d="M1320 1998 c-85 -50 -199 -117 -254 -149 l-99 -59 -36 33 c-103 93
-225 126 -346 93 -142 -37 -241 -133 -280 -270 -53 -183 59 -390 243 -451 79
-26 209 -18 284 17 71 33 138 100 175 176 26 52 28 66 28 169 l0 113 35 19
c19 10 91 51 160 91 69 40 164 95 212 122 48 27 92 56 98 63 8 10 4 26 -18 66
-15 29 -33 54 -38 55 -5 2 -79 -38 -164 -88z"/>
<path d="M2987 2033 c-32 -52 -33 -59 -19 -69 23 -15 382 -229 409 -243 20
-10 25 -7 58 45 20 31 33 60 28 64 -9 8 -302 182 -384 228 l-56 32 -36 -57z"/>
<path d="M3740 1915 c-88 -25 -191 -99 -174 -126 4 -8 3 -10 -4 -5 -17 10 -68
-75 -82 -136 -42 -174 46 -361 207 -439 70 -34 190 -38 274 -10 119 39 212
134 245 249 23 77 15 200 -16 265 -79 166 -271 252 -450 202z"/>
<path d="M2180 1337 l0 -284 -42 -12 c-100 -29 -180 -100 -227 -200 -23 -50
-26 -68 -25 -161 0 -92 3 -112 26 -162 34 -73 106 -146 183 -184 54 -26 70
-29 155 -29 86 0 101 3 162 32 132 62 205 170 215 314 7 98 -9 163 -57 239
-47 72 -115 124 -192 148 l-58 17 0 283 0 282 -70 0 -70 0 0 -283z"/>
<path d="M1063 1331 l-31 -60 301 -179 c438 -260 442 -262 458 -262 8 0 26 24
42 52 26 50 26 53 10 69 -10 9 -108 69 -218 134 -110 65 -271 160 -357 212
-87 51 -161 93 -165 93 -5 0 -22 -27 -40 -59z"/>
<path d="M3365 1376 c-11 -7 -108 -64 -215 -126 -107 -62 -215 -125 -240 -140
-25 -15 -83 -49 -130 -75 -47 -27 -97 -57 -112 -67 l-27 -18 30 -60 c16 -33
33 -60 37 -60 4 0 82 43 172 96 91 54 230 135 310 181 126 73 267 159 279 169
7 6 -61 114 -72 113 -7 0 -21 -6 -32 -13z"/>
</g>
</svg>
